<svg width="191" height="78" viewBox="0 0 191 78" fill="none" xmlns="http://www.w3.org/2000/svg">
<g clip-path="url(#clip0_631_75)">
<path d="M37.5582 16.8716H38.0111L38.8416 16.9488L39.3323 17.1032L40.0495 17.4121L40.578 17.7596L41.0687 18.1457L41.5216 18.609L41.9746 19.2653L42.2766 19.883L42.5408 20.6938L42.6541 21.3887V22.5084L42.5408 23.2033L42.3521 23.7824L42.0501 24.4388L41.7104 24.9793L41.3706 25.3654L40.9554 25.7901L40.4647 26.1762L39.8608 26.5236L38.9548 26.8325L38.6528 26.9097L38.1999 26.9483L38.3131 26.9869L38.3509 33.9364L38.9926 34.0908L39.7853 34.3997L40.5025 34.7858L40.9177 35.0946L41.3706 35.5193L41.7859 36.0212L41.8991 36.1757L42.2388 36.0598L43.8242 35.2105L45.1454 34.5155L45.9758 34.0522L47.0327 33.5117L47.7499 33.1256L48.9201 32.5079L49.6373 32.1218L50.0148 31.9288H50.1658L49.9393 31.118L49.8638 30.5775V29.5737L49.977 28.8787L50.1658 28.261L50.5055 27.5274L50.8075 27.0641L51.1472 26.6395L51.6757 26.1375L52.3174 25.6742L52.9213 25.3654L53.5253 25.1723L54.2425 25.0179H55.2994L56.0921 25.1723L56.6583 25.3654L57.2623 25.6742L57.753 26.0217L58.2437 26.4464L58.5834 26.7939L58.9986 27.373L59.3006 27.9521L59.5648 28.6857L59.6781 29.149L59.7158 29.4192V30.7319L59.5648 31.5041L59.3761 32.0832L59.1119 32.6237L58.6589 33.2801L58.2437 33.7434L57.8662 34.0908L57.3 34.4769L56.6205 34.7858L55.9411 35.0174L55.6014 35.0946H53.9782L53.412 34.9402L52.6571 34.67L52.0531 34.3225L51.5247 33.8978L51.034 33.3959L50.6942 32.9326L50.6187 32.894L50.581 33.0098L49.1466 33.7434L48.4294 34.1294L47.1837 34.7858L46.4665 35.1719L45.3719 35.751L44.4659 36.2143L43.7487 36.6004L42.6541 37.1795L42.5031 37.2567L42.5786 37.6042L42.6918 38.1061L42.7295 38.4149V39.9593L42.6541 40.3454V40.4226L42.8428 40.4612L46.7685 42.0055L49.4108 43.0479L50.128 43.3182L50.3545 43.434L50.3922 43.4726L50.8075 42.7777L51.1472 42.3916L51.6002 41.9283L52.1664 41.5036L52.6948 41.1947L53.3743 40.9245L54.1292 40.77L54.5822 40.7314H55.0352L55.7524 40.8087L56.3186 40.9631L56.9603 41.2333L57.602 41.6194L58.1304 42.0441L58.6212 42.546L59.0364 43.1638L59.3384 43.7815L59.5648 44.3992L59.6781 44.9011L59.7536 45.8663L59.6781 46.7543L59.4893 47.4879L59.2629 48.067L58.9231 48.6847L58.5079 49.2252L58.0927 49.6499L57.5265 50.0746L56.998 50.3835L56.4318 50.6151L55.6769 50.8082L55.4126 50.8468H54.1292L53.563 50.731L52.7703 50.4607L52.1664 50.1518L51.5624 49.6885L51.1849 49.3411L50.7697 48.8005L50.4677 48.2986L50.1658 47.6423L49.9393 46.8315L49.8638 46.291V45.3258L49.977 44.5536L49.7883 44.515L48.7314 44.0904L45.0321 42.6232L43.3335 41.9669L42.3898 41.5808L42.1633 41.5036L42.0878 41.7353L41.8236 42.1599L41.4084 42.6618L41.2197 42.8935L40.8044 43.241L40.276 43.5884L39.4833 43.9745L38.7661 44.2062L38.3131 44.2448V50.229L38.9548 50.3449L39.672 50.6151L40.578 51.117L40.9932 51.4645L41.4461 51.9278L41.8236 52.4297L42.2011 53.0861L42.4653 53.781L42.6163 54.4373L42.6541 54.9006V55.75L42.5786 56.3291L42.3521 57.1399L42.0501 57.7576L41.7104 58.2982L41.2951 58.8387L40.9932 59.1475L40.5025 59.495L39.6343 59.9583L38.7661 60.2286L38.0866 60.3058H37.1429L36.5012 60.19L35.8595 59.9583L35.0668 59.5722L34.4629 59.1089L34.0099 58.6456L33.5947 58.0665L33.3305 57.6032L33.0662 56.9469L32.8775 56.2519L32.802 55.5956V54.9006L32.9153 54.0899L33.1417 53.3949L33.4437 52.7772L33.7834 52.2367L34.1232 51.812L34.6516 51.3101L35.1801 50.924L35.7463 50.6151L36.539 50.3449L37.1807 50.229L37.1429 49.8816V44.2448L36.5767 44.1676L35.9728 43.9745L35.4821 43.7429L34.9914 43.4726L34.3874 43.0093L34.0099 42.6232L33.5192 41.9669L33.2927 41.5422L33.0662 41.5808L31.6318 42.1599L30.5372 42.5846L27.0267 43.9745L25.781 44.4764L25.5168 44.5536L25.63 45.7505L25.5923 46.5227L25.479 47.1018L25.2526 47.7967L24.8373 48.6075L24.4976 49.0708L24.0824 49.5341L23.6294 49.9202L23.0632 50.2677L22.497 50.5379L21.5156 50.8082L21.1381 50.8468H20.0812L19.4772 50.731L18.7978 50.4993L18.0051 50.1132L17.5144 49.7271L17.1369 49.3797L16.7972 48.9936L16.4197 48.3759L16.1177 47.7967L15.929 47.2176L15.8157 46.7543L15.7402 46.0208V45.5961L15.8535 44.7081L16.08 43.9359L16.4574 43.1638L16.7972 42.6618L17.2124 42.1599L17.7031 41.7353L18.2316 41.4264L18.8355 41.1175L19.4772 40.8859L20.1567 40.77L20.7229 40.7314L21.7421 40.8473L22.5347 41.1175L23.3652 41.5422L23.8936 41.9283L24.4221 42.4688L24.8373 43.0479L25.0638 43.434H25.1393L25.5923 43.241L26.5737 42.8549L28.1213 42.2372L32.802 40.384H32.8775L32.7265 39.9593V38.5694L32.802 37.9903L32.9153 37.527L32.9907 37.2953L32.0848 36.7934L31.2544 36.3687L30.5372 35.9826L29.065 35.2105L28.1968 34.7472L26.9512 34.0908L26.234 33.7048L25.4035 33.2801L24.8751 32.9712H24.7618L24.4599 33.3573L24.0069 33.8592L23.4784 34.2839L22.7612 34.7086L22.1195 34.9402L21.7043 35.056L21.3268 35.0946H19.8169L19.213 34.9402L18.609 34.7086L18.0051 34.3611L17.6653 34.0908L17.2501 33.7434L16.9481 33.4345L16.5707 32.9326L16.1932 32.2376L16.0045 31.7357L15.8157 31.0022L15.7402 30.3458V29.7667L15.8535 28.9559L16.08 28.1838L16.4574 27.4116L16.9859 26.7167L17.3256 26.3306L17.7031 25.9831L18.3448 25.597L18.911 25.3268L19.7414 25.0565L20.4964 24.9793H20.8361L21.7421 25.0951L22.5347 25.3654L23.2897 25.7515L23.7804 26.0989L24.1956 26.485L24.5354 26.9097L24.8751 27.373L25.2526 28.1066L25.5168 28.9559L25.63 29.8439V30.3844L25.5168 31.1952L25.328 31.8516L25.2903 31.9288L25.5168 31.9674L26.4227 32.4307L27.1399 32.8168L28.4611 33.5117L29.1783 33.8978L30.1974 34.4383L30.9146 34.8244L32.0093 35.4035L32.7265 35.7896L33.4815 36.1757L33.6325 36.1371L33.9722 35.6738L34.1609 35.4421L34.4629 35.1719L34.8404 34.863L35.4821 34.4769L36.0483 34.2453L36.8032 34.0136L37.1052 33.975L37.1429 33.6275V27.0255L37.1807 26.9869L36.841 26.9097L36.1993 26.7553L35.5198 26.485L35.1046 26.2534L34.5761 25.8287L34.0854 25.3654L33.7834 25.0179L33.406 24.4002L33.104 23.7438L32.9153 23.0875L32.802 22.3926V21.3887L32.9153 20.6938L33.1417 19.9988L33.4437 19.3425L33.7457 18.8792L34.0854 18.4545L34.5761 17.9912L35.2933 17.4893L35.8218 17.2191L36.4635 16.9874L36.992 16.9102L37.5582 16.8716Z" fill="#E16428"/>
</g>
<path d="M75.768 48.144C75.432 48.16 75.168 48.072 74.976 47.88C74.784 47.688 74.688 47.448 74.688 47.16C74.688 46.936 74.76 46.744 74.904 46.584C75.032 46.408 75.24 46.312 75.528 46.296L76.272 46.224C77.056 46.16 77.656 45.888 78.072 45.408C78.488 44.928 78.696 44.272 78.696 43.44V32.04C78.696 31.672 78.792 31.392 78.984 31.2C79.176 31.008 79.448 30.912 79.8 30.912C80.152 30.912 80.424 31.008 80.616 31.2C80.808 31.392 80.904 31.672 80.904 32.04V43.44C80.904 44.384 80.736 45.192 80.4 45.864C80.08 46.52 79.6 47.04 78.96 47.424C78.32 47.792 77.52 48.016 76.56 48.096L75.768 48.144ZM88.8733 48.216C87.9293 48.216 87.1373 48.04 86.4973 47.688C85.8733 47.336 85.4093 46.816 85.1053 46.128C84.8013 45.44 84.6493 44.576 84.6493 43.536V37.248C84.6493 36.88 84.7373 36.608 84.9133 36.432C85.1053 36.24 85.3773 36.144 85.7293 36.144C86.0813 36.144 86.3533 36.24 86.5453 36.432C86.7373 36.608 86.8333 36.88 86.8333 37.248V43.536C86.8333 44.528 87.0333 45.264 87.4333 45.744C87.8333 46.208 88.4653 46.44 89.3293 46.44C90.2893 46.44 91.0653 46.12 91.6573 45.48C92.2653 44.84 92.5693 43.992 92.5693 42.936V37.248C92.5693 36.88 92.6573 36.608 92.8333 36.432C93.0253 36.24 93.2973 36.144 93.6493 36.144C94.0013 36.144 94.2733 36.24 94.4653 36.432C94.6573 36.608 94.7533 36.88 94.7533 37.248V47.04C94.7533 47.792 94.4013 48.168 93.6973 48.168C93.3453 48.168 93.0733 48.072 92.8813 47.88C92.7053 47.688 92.6173 47.408 92.6173 47.04V44.952L92.9293 45.36C92.6093 46.288 92.0893 47 91.3693 47.496C90.6653 47.976 89.8333 48.216 88.8733 48.216ZM99.3956 48.168C99.0596 48.168 98.7956 48.072 98.6036 47.88C98.4116 47.688 98.3156 47.408 98.3156 47.04V37.248C98.3156 36.88 98.4116 36.608 98.6036 36.432C98.7956 36.24 99.0596 36.144 99.3956 36.144C99.7316 36.144 99.9876 36.24 100.164 36.432C100.356 36.608 100.452 36.88 100.452 37.248V39.288L100.188 38.856C100.492 37.976 100.98 37.296 101.652 36.816C102.34 36.336 103.156 36.096 104.1 36.096C105.092 36.096 105.892 36.336 106.5 36.816C107.108 37.28 107.516 37.992 107.724 38.952H107.388C107.676 38.072 108.188 37.376 108.924 36.864C109.676 36.352 110.548 36.096 111.54 36.096C112.42 36.096 113.14 36.272 113.7 36.624C114.276 36.96 114.708 37.472 114.996 38.16C115.284 38.832 115.428 39.696 115.428 40.752V47.04C115.428 47.408 115.332 47.688 115.14 47.88C114.948 48.072 114.684 48.168 114.348 48.168C113.996 48.168 113.724 48.072 113.532 47.88C113.34 47.688 113.244 47.408 113.244 47.04V40.848C113.244 39.824 113.068 39.072 112.716 38.592C112.364 38.112 111.772 37.872 110.94 37.872C110.028 37.872 109.3 38.192 108.756 38.832C108.228 39.456 107.964 40.32 107.964 41.424V47.04C107.964 47.408 107.868 47.688 107.676 47.88C107.5 48.072 107.236 48.168 106.884 48.168C106.532 48.168 106.26 48.072 106.068 47.88C105.876 47.688 105.78 47.408 105.78 47.04V40.848C105.78 39.824 105.604 39.072 105.252 38.592C104.9 38.112 104.308 37.872 103.476 37.872C102.564 37.872 101.836 38.192 101.292 38.832C100.764 39.456 100.5 40.32 100.5 41.424V47.04C100.5 47.792 100.132 48.168 99.3956 48.168ZM122.66 48.216C121.86 48.216 121.132 48.056 120.476 47.736C119.836 47.416 119.332 46.984 118.964 46.44C118.612 45.896 118.436 45.288 118.436 44.616C118.436 43.752 118.652 43.072 119.084 42.576C119.516 42.08 120.244 41.728 121.268 41.52C122.292 41.296 123.668 41.184 125.396 41.184H126.524V42.576H125.444C124.212 42.576 123.236 42.632 122.516 42.744C121.812 42.856 121.316 43.056 121.028 43.344C120.74 43.616 120.596 44 120.596 44.496C120.596 45.12 120.812 45.632 121.244 46.032C121.692 46.432 122.3 46.632 123.068 46.632C123.676 46.632 124.212 46.488 124.676 46.2C125.14 45.896 125.508 45.496 125.78 45C126.052 44.488 126.188 43.904 126.188 43.248V40.488C126.188 39.544 125.996 38.864 125.612 38.448C125.228 38.016 124.58 37.8 123.668 37.8C123.14 37.8 122.596 37.872 122.036 38.016C121.476 38.16 120.892 38.384 120.284 38.688C120.044 38.8 119.836 38.84 119.66 38.808C119.484 38.76 119.34 38.664 119.228 38.52C119.132 38.36 119.076 38.192 119.06 38.016C119.06 37.824 119.1 37.64 119.18 37.464C119.276 37.288 119.436 37.16 119.66 37.08C120.364 36.728 121.06 36.48 121.748 36.336C122.452 36.176 123.108 36.096 123.716 36.096C124.756 36.096 125.612 36.264 126.284 36.6C126.956 36.92 127.46 37.424 127.796 38.112C128.132 38.784 128.3 39.648 128.3 40.704V47.04C128.3 47.408 128.212 47.688 128.036 47.88C127.86 48.072 127.604 48.168 127.268 48.168C126.948 48.168 126.692 48.072 126.5 47.88C126.324 47.688 126.236 47.408 126.236 47.04V45.336H126.452C126.324 45.928 126.084 46.44 125.732 46.872C125.38 47.304 124.94 47.64 124.412 47.88C123.9 48.104 123.316 48.216 122.66 48.216ZM136.2 48.216C135.176 48.216 134.272 47.976 133.488 47.496C132.72 47 132.12 46.296 131.688 45.384C131.256 44.456 131.04 43.376 131.04 42.144C131.04 40.896 131.248 39.824 131.664 38.928C132.096 38.016 132.696 37.32 133.464 36.84C134.248 36.344 135.16 36.096 136.2 36.096C137.24 36.096 138.136 36.36 138.888 36.888C139.64 37.4 140.144 38.088 140.4 38.952H140.136V32.016C140.136 31.648 140.224 31.376 140.4 31.2C140.592 31.008 140.864 30.912 141.216 30.912C141.568 30.912 141.84 31.008 142.032 31.2C142.224 31.376 142.32 31.648 142.32 32.016V47.04C142.32 47.408 142.224 47.688 142.032 47.88C141.84 48.072 141.568 48.168 141.216 48.168C140.88 48.168 140.616 48.072 140.424 47.88C140.232 47.688 140.136 47.408 140.136 47.04V44.856L140.4 45.288C140.16 46.184 139.656 46.896 138.888 47.424C138.136 47.952 137.24 48.216 136.2 48.216ZM136.704 46.488C137.408 46.488 138.016 46.32 138.528 45.984C139.056 45.648 139.456 45.16 139.728 44.52C140.016 43.88 140.16 43.088 140.16 42.144C140.16 40.736 139.848 39.664 139.224 38.928C138.6 38.192 137.76 37.824 136.704 37.824C136.016 37.824 135.408 37.992 134.88 38.328C134.368 38.648 133.968 39.128 133.68 39.768C133.392 40.408 133.248 41.2 133.248 42.144C133.248 43.552 133.56 44.632 134.184 45.384C134.824 46.12 135.664 46.488 136.704 46.488ZM151.222 48.216C149.958 48.216 148.87 47.976 147.958 47.496C147.062 47 146.366 46.304 145.87 45.408C145.374 44.496 145.126 43.424 145.126 42.192C145.126 40.976 145.366 39.912 145.846 39C146.342 38.088 147.014 37.376 147.862 36.864C148.726 36.352 149.71 36.096 150.814 36.096C151.598 36.096 152.302 36.232 152.926 36.504C153.566 36.76 154.11 37.136 154.558 37.632C155.006 38.128 155.342 38.736 155.566 39.456C155.806 40.16 155.926 40.96 155.926 41.856C155.926 42.112 155.846 42.312 155.686 42.456C155.542 42.584 155.326 42.648 155.038 42.648H146.83V41.256H154.486L154.078 41.592C154.078 40.76 153.95 40.056 153.694 39.48C153.454 38.888 153.094 38.44 152.614 38.136C152.15 37.832 151.566 37.68 150.862 37.68C150.094 37.68 149.438 37.864 148.894 38.232C148.35 38.584 147.934 39.088 147.646 39.744C147.358 40.384 147.214 41.128 147.214 41.976V42.12C147.214 43.56 147.558 44.648 148.246 45.384C148.934 46.12 149.926 46.488 151.222 46.488C151.734 46.488 152.254 46.424 152.782 46.296C153.326 46.168 153.846 45.936 154.342 45.6C154.582 45.456 154.798 45.392 154.99 45.408C155.198 45.408 155.366 45.472 155.494 45.6C155.622 45.712 155.702 45.856 155.734 46.032C155.766 46.192 155.742 46.368 155.662 46.56C155.582 46.752 155.43 46.92 155.206 47.064C154.678 47.432 154.046 47.72 153.31 47.928C152.59 48.12 151.894 48.216 151.222 48.216ZM162.919 48.168C162.615 48.168 162.351 48.088 162.127 47.928C161.903 47.768 161.711 47.512 161.551 47.16L157.471 37.656C157.359 37.384 157.319 37.136 157.351 36.912C157.383 36.688 157.487 36.504 157.663 36.36C157.855 36.216 158.111 36.144 158.431 36.144C158.703 36.144 158.919 36.208 159.079 36.336C159.239 36.464 159.391 36.688 159.535 37.008L163.303 46.296H162.631L166.495 37.008C166.623 36.688 166.767 36.464 166.927 36.336C167.103 36.208 167.343 36.144 167.647 36.144C167.919 36.144 168.127 36.216 168.271 36.36C168.431 36.504 168.527 36.688 168.559 36.912C168.591 37.136 168.543 37.376 168.415 37.632L164.311 47.16C164.167 47.512 163.975 47.768 163.735 47.928C163.511 48.088 163.239 48.168 162.919 48.168ZM174.698 48.216C173.978 48.216 173.25 48.136 172.514 47.976C171.794 47.8 171.114 47.504 170.474 47.088C170.298 46.976 170.17 46.84 170.09 46.68C170.026 46.504 170.002 46.336 170.018 46.176C170.05 46 170.122 45.848 170.234 45.72C170.346 45.592 170.482 45.52 170.642 45.504C170.818 45.472 171.002 45.512 171.194 45.624C171.818 45.976 172.418 46.224 172.994 46.368C173.586 46.512 174.17 46.584 174.746 46.584C175.626 46.584 176.29 46.424 176.738 46.104C177.186 45.784 177.41 45.36 177.41 44.832C177.41 44.384 177.258 44.04 176.954 43.8C176.666 43.544 176.21 43.352 175.586 43.224L173.354 42.768C172.362 42.544 171.61 42.176 171.098 41.664C170.602 41.136 170.354 40.464 170.354 39.648C170.354 38.928 170.546 38.304 170.93 37.776C171.33 37.232 171.882 36.816 172.586 36.528C173.29 36.24 174.098 36.096 175.01 36.096C175.714 36.096 176.378 36.192 177.002 36.384C177.642 36.56 178.218 36.832 178.73 37.2C178.922 37.312 179.042 37.456 179.09 37.632C179.154 37.792 179.162 37.96 179.114 38.136C179.082 38.296 179.01 38.432 178.898 38.544C178.786 38.656 178.642 38.728 178.466 38.76C178.29 38.776 178.098 38.728 177.89 38.616C177.426 38.296 176.946 38.072 176.45 37.944C175.97 37.8 175.49 37.728 175.01 37.728C174.146 37.728 173.49 37.896 173.042 38.232C172.61 38.568 172.394 39.008 172.394 39.552C172.394 39.968 172.522 40.312 172.778 40.584C173.05 40.856 173.474 41.056 174.05 41.184L176.282 41.64C177.322 41.864 178.106 42.224 178.634 42.72C179.162 43.2 179.426 43.856 179.426 44.688C179.426 45.776 178.994 46.64 178.13 47.28C177.282 47.904 176.138 48.216 174.698 48.216Z" fill="#E16428"/>
<defs>
<clipPath id="clip0_631_75">
<path d="M0 0H58.4946C67.8834 0 75.4946 7.61116 75.4946 17V77.2164H0V0Z" fill="white"/>
</clipPath>
</defs>
</svg>
