<svg width="128" height="128" viewBox="57 60 150 150" fill="none" xmlns="http://www.w3.org/2000/svg">
<g clip-path="url(#clip0_583_2)">
<path d="M130.843 58.7764H132.421L135.314 59.0454L137.023 59.5834L139.522 60.6594L141.363 61.8699L143.072 63.2149L144.65 64.8289L146.228 67.1154L147.28 69.2674L148.201 72.0919L148.595 74.5129V78.4134L148.201 80.8344L147.543 82.8519L146.491 85.1384L145.308 87.0214L144.124 88.3664L142.678 89.8459L140.968 91.1909L138.864 92.4014L135.708 93.4774L134.656 93.7464L133.078 93.8809L133.473 94.0154L133.604 118.225L135.84 118.763L138.601 119.839L141.1 121.184L142.546 122.26L144.124 123.74L145.571 125.488L145.965 126.026L147.149 125.623L152.672 122.664L157.274 120.243L160.167 118.629L163.849 116.746L166.348 115.401L170.424 113.249L172.923 111.904L174.238 111.231H174.764L173.975 108.407L173.712 106.524V103.027L174.106 100.606L174.764 98.4539L175.947 95.8984L176.999 94.2844L178.183 92.8049L180.024 91.0564L182.259 89.4424L184.363 88.3664L186.467 87.6939L188.966 87.1559H192.648L195.409 87.6939L197.382 88.3664L199.486 89.4424L201.195 90.6529L202.905 92.1324L204.088 93.3429L205.535 95.3604L206.587 97.3779L207.507 99.9334L207.902 101.547L208.033 102.489V107.062L207.507 109.752L206.85 111.769L205.929 113.652L204.351 115.939L202.905 117.553L201.59 118.763L199.617 120.108L197.25 121.184L194.883 121.991L193.7 122.26H188.045L186.073 121.722L183.443 120.781L181.339 119.57L179.498 118.091L177.788 116.342L176.605 114.728L176.342 114.594L176.21 114.997L171.213 117.553L168.715 118.898L164.375 121.184L161.877 122.529L158.063 124.547L154.907 126.161L152.409 127.506L148.595 129.523L148.069 129.792L148.332 131.003L148.727 132.751L148.858 133.827V139.207L148.595 140.552V140.821L149.253 140.956L162.929 146.336L172.134 149.967L174.632 150.909L175.421 151.312L175.553 151.447L176.999 149.026L178.183 147.681L179.761 146.067L181.733 144.587L183.574 143.511L185.941 142.57L188.571 142.032L190.149 141.897H191.727L194.226 142.166L196.198 142.704L198.434 143.646L200.669 144.991L202.51 146.47L204.22 148.219L205.666 150.371L206.718 152.523L207.507 154.675L207.902 156.423L208.165 159.786L207.902 162.879L207.244 165.435L206.455 167.452L205.272 169.604L203.825 171.487L202.379 172.967L200.406 174.446L198.565 175.522L196.593 176.329L193.963 177.002L193.042 177.136H188.571L186.599 176.733L183.837 175.791L181.733 174.715L179.629 173.101L178.314 171.891L176.868 170.008L175.816 168.259L174.764 165.973L173.975 163.148L173.712 161.265V157.903L174.106 155.213L173.449 155.078L169.767 153.599L156.88 148.488L150.962 146.201L147.675 144.856L146.886 144.587L146.623 145.394L145.702 146.874L144.256 148.622L143.598 149.429L142.152 150.64L140.311 151.85L137.549 153.195L135.051 154.002L133.473 154.137V174.984L135.708 175.388L138.207 176.329L141.363 178.078L142.809 179.288L144.387 180.902L145.702 182.651L147.017 184.937L147.938 187.358L148.464 189.645L148.595 191.259V194.218L148.332 196.235L147.543 199.06L146.491 201.212L145.308 203.095L143.861 204.978L142.809 206.054L141.1 207.264L138.075 208.878L135.051 209.82L132.684 210.089H129.396L127.161 209.685L124.925 208.878L122.164 207.533L120.06 205.919L118.482 204.305L117.035 202.288L116.115 200.674L115.194 198.387L114.537 195.966L114.274 193.68V191.259L114.668 188.434L115.457 186.013L116.509 183.861L117.693 181.978L118.876 180.499L120.717 178.75L122.558 177.405L124.531 176.329L127.292 175.388L129.528 174.984L129.396 173.774V154.137L127.424 153.868L125.32 153.195L123.61 152.388L121.901 151.447L119.797 149.833L118.482 148.488L116.772 146.201L115.983 144.722L115.194 144.856L110.197 146.874L106.384 148.353L94.1544 153.195L89.8149 154.944L88.8944 155.213L89.2889 159.382L89.1574 162.072L88.7629 164.09L87.9739 166.511L86.5274 169.335L85.3439 170.949L83.8974 172.563L82.3194 173.908L80.3469 175.119L78.3744 176.06L74.9554 177.002L73.6404 177.136H69.9584L67.8544 176.733L65.4874 175.926L62.7259 174.581L61.0164 173.236L59.7014 172.025L58.5179 170.68L57.2029 168.528L56.1509 166.511L55.4934 164.493L55.0989 162.879L54.8359 160.324V158.844L55.2304 155.751L56.0194 153.061L57.3344 150.371L58.5179 148.622L59.9644 146.874L61.6739 145.394L63.5149 144.318L65.6189 143.242L67.8544 142.435L70.2214 142.032L72.1939 141.897L75.7444 142.301L78.5059 143.242L81.3989 144.722L83.2399 146.067L85.0809 147.95L86.5274 149.967L87.3164 151.312H87.5794L89.1574 150.64L92.5764 149.295L97.9679 147.143L114.274 140.687H114.537L114.011 139.207V134.365L114.274 132.348L114.668 130.734L114.931 129.927L111.775 128.178L108.882 126.699L106.384 125.354L101.255 122.664L98.2309 121.05L93.8914 118.763L91.3929 117.418L88.4999 115.939L86.6589 114.863H86.2644L85.2124 116.208L83.6344 117.956L81.7934 119.436L79.2949 120.915L77.0594 121.722L75.6129 122.126L74.2979 122.26H69.0379L66.9339 121.722L64.8299 120.915L62.7259 119.705L61.5424 118.763L60.0959 117.553L59.0439 116.477L57.7289 114.728L56.4139 112.307L55.7564 110.559L55.0989 108.003L54.8359 105.717V103.699L55.2304 100.875L56.0194 98.1849L57.3344 95.4949L59.1754 93.0739L60.3589 91.7289L61.6739 90.5184L63.9094 89.1734L65.8819 88.2319L68.7749 87.2904L71.4049 87.0214H72.5884L75.7444 87.4249L78.5059 88.3664L81.1359 89.7114L82.8454 90.9219L84.2919 92.2669L85.4754 93.7464L86.6589 95.3604L87.9739 97.9159L88.8944 100.875L89.2889 103.968V105.851L88.8944 108.676L88.2369 110.962L88.1054 111.231L88.8944 111.366L92.0504 112.98L94.5489 114.325L99.1514 116.746L101.65 118.091L105.2 119.974L107.699 121.319L111.512 123.336L114.011 124.681L116.641 126.026L117.167 125.892L118.35 124.278L119.008 123.471L120.06 122.529L121.375 121.453L123.61 120.108L125.583 119.301L128.213 118.494L129.265 118.36L129.396 117.149V94.1499L129.528 94.0154L128.344 93.7464L126.109 93.2084L123.742 92.2669L122.295 91.4599L120.454 89.9804L118.745 88.3664L117.693 87.1559L116.378 85.0039L115.326 82.7174L114.668 80.4309L114.274 78.0099V74.5129L114.668 72.0919L115.457 69.6709L116.509 67.3844L117.561 65.7704L118.745 64.2909L120.454 62.6769L122.953 60.9284L124.794 59.9869L127.029 59.1799L128.87 58.9109L130.843 58.7764Z" fill="#F3752A"/>
</g>
<defs>
<clipPath id="clip0_583_2">
<rect width="263" height="269" fill="white"/>
</clipPath>
</defs>
</svg>
