<svg width="609" height="269" viewBox="0 0 609 269" fill="none" xmlns="http://www.w3.org/2000/svg">
<g clip-path="url(#clip0_583_2)">
<path d="M130.843 58.7764H132.421L135.314 59.0454L137.023 59.5834L139.522 60.6594L141.363 61.8699L143.072 63.2149L144.65 64.8289L146.228 67.1154L147.28 69.2674L148.201 72.0919L148.595 74.5129V78.4134L148.201 80.8344L147.543 82.8519L146.491 85.1384L145.308 87.0214L144.124 88.3664L142.678 89.8459L140.968 91.1909L138.864 92.4014L135.708 93.4774L134.656 93.7464L133.078 93.8809L133.473 94.0154L133.604 118.225L135.84 118.763L138.601 119.839L141.1 121.184L142.546 122.26L144.124 123.74L145.571 125.488L145.965 126.026L147.149 125.623L152.672 122.664L157.274 120.243L160.167 118.629L163.849 116.746L166.348 115.401L170.424 113.249L172.923 111.904L174.238 111.231H174.764L173.975 108.407L173.712 106.524V103.027L174.106 100.606L174.764 98.4539L175.947 95.8984L176.999 94.2844L178.183 92.8049L180.024 91.0564L182.259 89.4424L184.363 88.3664L186.467 87.6939L188.966 87.1559H192.648L195.409 87.6939L197.382 88.3664L199.486 89.4424L201.195 90.6529L202.905 92.1324L204.088 93.3429L205.535 95.3604L206.587 97.3779L207.507 99.9334L207.902 101.547L208.033 102.489V107.062L207.507 109.752L206.85 111.769L205.929 113.652L204.351 115.939L202.905 117.553L201.59 118.763L199.617 120.108L197.25 121.184L194.883 121.991L193.7 122.26H188.045L186.073 121.722L183.443 120.781L181.339 119.57L179.498 118.091L177.788 116.342L176.605 114.728L176.342 114.594L176.21 114.997L171.213 117.553L168.715 118.898L164.375 121.184L161.877 122.529L158.063 124.547L154.907 126.161L152.409 127.506L148.595 129.523L148.069 129.792L148.332 131.003L148.727 132.751L148.858 133.827V139.207L148.595 140.552V140.821L149.253 140.956L162.929 146.336L172.134 149.967L174.632 150.909L175.421 151.312L175.553 151.447L176.999 149.026L178.183 147.681L179.761 146.067L181.733 144.587L183.574 143.511L185.941 142.57L188.571 142.032L190.149 141.897H191.727L194.226 142.166L196.198 142.704L198.434 143.646L200.669 144.991L202.51 146.47L204.22 148.219L205.666 150.371L206.718 152.523L207.507 154.675L207.902 156.423L208.165 159.786L207.902 162.879L207.244 165.435L206.455 167.452L205.272 169.604L203.825 171.487L202.379 172.967L200.406 174.446L198.565 175.522L196.593 176.329L193.963 177.002L193.042 177.136H188.571L186.599 176.733L183.837 175.791L181.733 174.715L179.629 173.101L178.314 171.891L176.868 170.008L175.816 168.259L174.764 165.973L173.975 163.148L173.712 161.265V157.903L174.106 155.213L173.449 155.078L169.767 153.599L156.88 148.488L150.962 146.201L147.675 144.856L146.886 144.587L146.623 145.394L145.702 146.874L144.256 148.622L143.598 149.429L142.152 150.64L140.311 151.85L137.549 153.195L135.051 154.002L133.473 154.137V174.984L135.708 175.388L138.207 176.329L141.363 178.078L142.809 179.288L144.387 180.902L145.702 182.651L147.017 184.937L147.938 187.358L148.464 189.645L148.595 191.259V194.218L148.332 196.235L147.543 199.06L146.491 201.212L145.308 203.095L143.861 204.978L142.809 206.054L141.1 207.264L138.075 208.878L135.051 209.82L132.684 210.089H129.396L127.161 209.685L124.925 208.878L122.164 207.533L120.06 205.919L118.482 204.305L117.035 202.288L116.115 200.674L115.194 198.387L114.537 195.966L114.274 193.68V191.259L114.668 188.434L115.457 186.013L116.509 183.861L117.693 181.978L118.876 180.499L120.717 178.75L122.558 177.405L124.531 176.329L127.292 175.388L129.528 174.984L129.396 173.774V154.137L127.424 153.868L125.32 153.195L123.61 152.388L121.901 151.447L119.797 149.833L118.482 148.488L116.772 146.201L115.983 144.722L115.194 144.856L110.197 146.874L106.384 148.353L94.1544 153.195L89.8149 154.944L88.8944 155.213L89.2889 159.382L89.1574 162.072L88.7629 164.09L87.9739 166.511L86.5274 169.335L85.3439 170.949L83.8974 172.563L82.3194 173.908L80.3469 175.119L78.3744 176.06L74.9554 177.002L73.6404 177.136H69.9584L67.8544 176.733L65.4874 175.926L62.7259 174.581L61.0164 173.236L59.7014 172.025L58.5179 170.68L57.2029 168.528L56.1509 166.511L55.4934 164.493L55.0989 162.879L54.8359 160.324V158.844L55.2304 155.751L56.0194 153.061L57.3344 150.371L58.5179 148.622L59.9644 146.874L61.6739 145.394L63.5149 144.318L65.6189 143.242L67.8544 142.435L70.2214 142.032L72.1939 141.897L75.7444 142.301L78.5059 143.242L81.3989 144.722L83.2399 146.067L85.0809 147.95L86.5274 149.967L87.3164 151.312H87.5794L89.1574 150.64L92.5764 149.295L97.9679 147.143L114.274 140.687H114.537L114.011 139.207V134.365L114.274 132.348L114.668 130.734L114.931 129.927L111.775 128.178L108.882 126.699L106.384 125.354L101.255 122.664L98.2309 121.05L93.8914 118.763L91.3929 117.418L88.4999 115.939L86.6589 114.863H86.2644L85.2124 116.208L83.6344 117.956L81.7934 119.436L79.2949 120.915L77.0594 121.722L75.6129 122.126L74.2979 122.26H69.0379L66.9339 121.722L64.8299 120.915L62.7259 119.705L61.5424 118.763L60.0959 117.553L59.0439 116.477L57.7289 114.728L56.4139 112.307L55.7564 110.559L55.0989 108.003L54.8359 105.717V103.699L55.2304 100.875L56.0194 98.1849L57.3344 95.4949L59.1754 93.0739L60.3589 91.7289L61.6739 90.5184L63.9094 89.1734L65.8819 88.2319L68.7749 87.2904L71.4049 87.0214H72.5884L75.7444 87.4249L78.5059 88.3664L81.1359 89.7114L82.8454 90.9219L84.2919 92.2669L85.4754 93.7464L86.6589 95.3604L87.9739 97.9159L88.8944 100.875L89.2889 103.968V105.851L88.8944 108.676L88.2369 110.962L88.1054 111.231L88.8944 111.366L92.0504 112.98L94.5489 114.325L99.1514 116.746L101.65 118.091L105.2 119.974L107.699 121.319L111.512 123.336L114.011 124.681L116.641 126.026L117.167 125.892L118.35 124.278L119.008 123.471L120.06 122.529L121.375 121.453L123.61 120.108L125.583 119.301L128.213 118.494L129.265 118.36L129.396 117.149V94.1499L129.528 94.0154L128.344 93.7464L126.109 93.2084L123.742 92.2669L122.295 91.4599L120.454 89.9804L118.745 88.3664L117.693 87.1559L116.378 85.0039L115.326 82.7174L114.668 80.4309L114.274 78.0099V74.5129L114.668 72.0919L115.457 69.6709L116.509 67.3844L117.561 65.7704L118.745 64.2909L120.454 62.6769L122.953 60.9284L124.794 59.9869L127.029 59.1799L128.87 58.9109L130.843 58.7764Z" fill="white"/>
</g>
<path d="M283.88 156.497C283.88 161.19 282.973 165.19 281.16 168.497C279.4 171.804 276.973 174.31 273.88 176.017C270.787 177.777 267.24 178.737 263.24 178.897V171.377C266.973 171.164 270.04 169.83 272.44 167.377C274.893 164.977 276.12 161.27 276.12 156.257V109.137H283.88V156.497ZM309.179 168.257C306.192 168.257 303.712 167.35 301.739 165.537C299.819 163.67 298.805 161.27 298.699 158.337V133.857H306.139V155.697C306.245 157.51 306.752 158.977 307.659 160.097C308.619 161.217 310.112 161.804 312.139 161.857C314.005 161.857 315.659 161.324 317.099 160.257C318.592 159.137 319.792 157.644 320.699 155.777C321.605 153.857 322.059 151.697 322.059 149.297V133.857H329.499V166.977H322.699L322.059 158.817L322.459 160.257C321.819 161.804 320.832 163.19 319.499 164.417C318.219 165.59 316.699 166.524 314.939 167.217C313.179 167.91 311.259 168.257 309.179 168.257ZM349.011 133.857L349.651 141.297L349.331 140.657C350.557 138.15 352.291 136.177 354.531 134.737C356.824 133.297 359.437 132.577 362.371 132.577C364.237 132.577 365.891 132.87 367.331 133.457C368.771 134.044 369.944 134.897 370.851 136.017C371.811 137.084 372.424 138.417 372.691 140.017L372.291 140.257C373.571 137.857 375.331 135.99 377.571 134.657C379.864 133.27 382.264 132.577 384.771 132.577C388.024 132.577 390.584 133.51 392.451 135.377C394.371 137.19 395.357 139.564 395.411 142.497V166.977H387.971V145.137C387.917 143.43 387.491 142.017 386.691 140.897C385.944 139.724 384.611 139.084 382.691 138.977C380.771 138.977 379.037 139.564 377.491 140.737C375.997 141.91 374.824 143.43 373.971 145.297C373.117 147.11 372.664 149.084 372.611 151.217V166.977H365.171V145.137C365.117 143.43 364.664 142.017 363.811 140.897C363.011 139.724 361.651 139.084 359.731 138.977C357.757 138.977 356.024 139.564 354.531 140.737C353.037 141.91 351.864 143.43 351.011 145.297C350.211 147.164 349.811 149.164 349.811 151.297V166.977H342.371V133.857H349.011ZM422.146 167.777C419.053 167.777 416.226 167.11 413.666 165.777C411.16 164.444 409.16 162.497 407.666 159.937C406.226 157.324 405.506 154.15 405.506 150.417C405.506 146.737 406.28 143.564 407.826 140.897C409.373 138.177 411.426 136.097 413.986 134.657C416.6 133.217 419.453 132.497 422.546 132.497C425.64 132.497 428.253 133.217 430.386 134.657C432.52 136.044 434.146 137.697 435.266 139.617L434.786 140.897L435.506 133.857H442.386V166.977H434.946V158.337L435.746 160.257C435.533 160.79 435.053 161.484 434.306 162.337C433.613 163.137 432.653 163.964 431.426 164.817C430.253 165.67 428.893 166.39 427.346 166.977C425.8 167.51 424.066 167.777 422.146 167.777ZM424.146 161.617C426.013 161.617 427.693 161.27 429.186 160.577C430.68 159.884 431.906 158.924 432.866 157.697C433.88 156.417 434.573 154.897 434.946 153.137V146.657C434.52 145.057 433.773 143.67 432.706 142.497C431.64 141.27 430.36 140.337 428.866 139.697C427.373 139.004 425.72 138.657 423.906 138.657C421.933 138.657 420.12 139.137 418.466 140.097C416.813 141.057 415.48 142.39 414.466 144.097C413.506 145.804 413.026 147.804 413.026 150.097C413.026 152.23 413.533 154.177 414.546 155.937C415.56 157.697 416.92 159.084 418.626 160.097C420.333 161.11 422.173 161.617 424.146 161.617ZM468.701 167.777C465.661 167.777 462.888 167.057 460.381 165.617C457.928 164.124 455.981 162.044 454.541 159.377C453.101 156.657 452.381 153.537 452.381 150.017C452.381 146.337 453.128 143.19 454.621 140.577C456.168 137.964 458.248 135.964 460.861 134.577C463.475 133.19 466.408 132.497 469.661 132.497C472.275 132.497 474.755 133.057 477.101 134.177C479.501 135.297 481.368 136.844 482.701 138.817L482.381 141.457V105.057H489.741V166.977H482.301V158.737L483.101 160.817C481.555 162.844 479.555 164.524 477.101 165.857C474.648 167.137 471.848 167.777 468.701 167.777ZM471.021 161.457C472.995 161.457 474.755 161.11 476.301 160.417C477.848 159.67 479.128 158.657 480.141 157.377C481.155 156.097 481.875 154.577 482.301 152.817V146.577C481.875 144.977 481.101 143.59 479.981 142.417C478.915 141.19 477.608 140.23 476.061 139.537C474.568 138.79 472.888 138.417 471.021 138.417C468.995 138.417 467.128 138.924 465.421 139.937C463.768 140.897 462.435 142.23 461.421 143.937C460.408 145.644 459.901 147.617 459.901 149.857C459.901 152.044 460.408 154.017 461.421 155.777C462.435 157.484 463.795 158.87 465.501 159.937C467.208 160.95 469.048 161.457 471.021 161.457ZM518.043 167.777C514.256 167.777 511.003 167.03 508.283 165.537C505.563 163.99 503.456 161.91 501.963 159.297C500.523 156.63 499.803 153.59 499.803 150.177C499.803 146.924 500.63 143.964 502.283 141.297C503.936 138.63 506.15 136.497 508.923 134.897C511.696 133.297 514.79 132.497 518.203 132.497C522.576 132.497 526.203 133.777 529.083 136.337C531.963 138.897 533.91 142.417 534.923 146.897L507.643 156.497L505.883 152.097L528.283 143.937L526.683 144.977C526.043 143.217 524.976 141.697 523.483 140.417C521.99 139.084 520.043 138.417 517.643 138.417C515.616 138.417 513.803 138.924 512.203 139.937C510.603 140.897 509.35 142.23 508.443 143.937C507.536 145.644 507.083 147.59 507.083 149.777C507.083 152.07 507.563 154.097 508.523 155.857C509.483 157.564 510.79 158.924 512.443 159.937C514.15 160.897 516.07 161.377 518.203 161.377C519.643 161.377 521.03 161.11 522.363 160.577C523.75 160.044 525.03 159.35 526.203 158.497L529.643 164.017C527.99 165.137 526.123 166.044 524.043 166.737C522.016 167.43 520.016 167.777 518.043 167.777ZM556.514 167.937L538.114 133.857H546.914L559.394 160.177L554.834 160.017L566.274 133.857H574.594L556.914 167.937H556.514ZM591.885 167.617C589.538 167.617 587.245 167.217 585.005 166.417C582.818 165.564 581.005 164.31 579.565 162.657L582.685 158.337C584.072 159.67 585.485 160.684 586.925 161.377C588.418 162.017 589.885 162.337 591.325 162.337C592.392 162.337 593.378 162.204 594.285 161.937C595.192 161.67 595.912 161.244 596.445 160.657C597.032 160.017 597.325 159.164 597.325 158.097C597.325 156.924 596.925 155.99 596.125 155.297C595.378 154.604 594.392 154.044 593.165 153.617C591.992 153.19 590.738 152.79 589.405 152.417C586.685 151.51 584.605 150.257 583.165 148.657C581.725 147.057 581.005 145.11 581.005 142.817C581.005 141.057 581.432 139.43 582.285 137.937C583.192 136.39 584.498 135.137 586.205 134.177C587.965 133.217 590.125 132.737 592.685 132.737C594.978 132.737 597.032 133.03 598.845 133.617C600.658 134.15 602.365 135.057 603.965 136.337L601.005 140.977C600.045 139.964 598.898 139.217 597.565 138.737C596.232 138.257 595.032 137.99 593.965 137.937C593.058 137.884 592.178 138.017 591.325 138.337C590.525 138.657 589.858 139.11 589.325 139.697C588.792 140.284 588.525 140.977 588.525 141.777C588.525 142.897 588.898 143.804 589.645 144.497C590.392 145.19 591.352 145.75 592.525 146.177C593.752 146.55 594.952 146.95 596.125 147.377C597.778 147.857 599.245 148.497 600.525 149.297C601.805 150.097 602.818 151.084 603.565 152.257C604.365 153.43 604.765 154.897 604.765 156.657C604.765 158.63 604.285 160.47 603.325 162.177C602.418 163.83 601.005 165.164 599.085 166.177C597.218 167.137 594.818 167.617 591.885 167.617Z" fill="white"/>
<defs>
<clipPath id="clip0_583_2">
<rect width="263" height="269" fill="white"/>
</clipPath>
</defs>
</svg>
